<?xml version="1.0" encoding="UTF-8" standalone="no"?>
<!-- Created with Inkscape (http://www.inkscape.org/) -->

<svg
   xmlns:dc="http://purl.org/dc/elements/1.1/"
   xmlns:cc="http://creativecommons.org/ns#"
   xmlns:rdf="http://www.w3.org/1999/02/22-rdf-syntax-ns#"
   xmlns:svg="http://www.w3.org/2000/svg"
   xmlns="http://www.w3.org/2000/svg"
   xmlns:sodipodi="http://sodipodi.sourceforge.net/DTD/sodipodi-0.dtd"
   xmlns:inkscape="http://www.inkscape.org/namespaces/inkscape"
   version="1.1"
   id="svg2"
   xml:space="preserve"
   width="170.49484"
   height="185.38641"
   viewBox="0 0 170.49484 185.38642"
   sodipodi:docname="Paradox_Branco.svg"
   inkscape:version="0.92.4 (5da689c313, 2019-01-14)"><metadata
     id="metadata8"><rdf:RDF><cc:Work
         rdf:about=""><dc:format>image/svg+xml</dc:format><dc:type
           rdf:resource="http://purl.org/dc/dcmitype/StillImage" /><dc:title></dc:title></cc:Work></rdf:RDF></metadata><defs
     id="defs6"><clipPath
       clipPathUnits="userSpaceOnUse"
       id="clipPath18"><path
         d="M 0,34.596 H 33.601 V 0 H 0 Z"
         id="path16"
         inkscape:connector-curvature="0" /></clipPath></defs><sodipodi:namedview
     pagecolor="#ffffff"
     bordercolor="#666666"
     borderopacity="1"
     objecttolerance="10"
     gridtolerance="10"
     guidetolerance="10"
     inkscape:pageopacity="0"
     inkscape:pageshadow="2"
     inkscape:window-width="1366"
     inkscape:window-height="704"
     id="namedview4"
     showgrid="false"
     fit-margin-top="0"
     fit-margin-left="0"
     fit-margin-right="0"
     fit-margin-bottom="0"
     inkscape:zoom="2"
     inkscape:cx="66.889146"
     inkscape:cy="79.436975"
     inkscape:window-x="0"
     inkscape:window-y="27"
     inkscape:window-maximized="1"
     inkscape:current-layer="g14" /><g
     id="g10"
     inkscape:groupmode="layer"
     inkscape:label="Paradox Interactive"
     transform="matrix(1.3333333,0,0,-1.3333333,128.07217,185.38641)"><g
       id="g12"
       transform="matrix(4.0189562,0,0,4.0189562,-96.054128,0)"><g
         id="g14"
         clip-path="url(#clipPath18)"><path
           d="m 28.686462,16.531459 c -0.161,0.788 0.659,1.471 0.271,2.277 -0.385,0.794 -2.26,0.755 -2.289,1.669 -0.038,1.068 1.515,0.524 2.166,0.503 0,1.711 -0.673,3.172 -2.513,2.017 -0.309,0 -0.73,0.063 -0.877,0.338 -0.55,1.011 1.133,1.227 1.179,2.044 0.025,0.473 -0.553,0.773 -0.732,1.157 -0.123,0.257 -0.015,0.584 -0.015,0.857 0,0.114 -0.133,0.118 -0.223,0.141 -0.347,0.089 -0.67,-0.11 -1.027,-0.034 -0.396,0.086 -0.613,0.448 -0.966,0.612 0,-0.146 -0.252,-0.336 -0.335,-0.455 -0.26,-0.36 -1.192,-1.634 -1.76,-1.081 -0.223,0.217 -0.186,0.6 -0.141,0.892 0.327,2.207 -0.479,2.447 -2.418,2.756 -0.471,0.078 -1.672,0.362 -2.221,0.194 0,-0.379 0.479,-3.02 -0.37,-2.882 -1.009,0 -0.457,2.622 -1.921,2.954 -0.241,-0.088 -0.559,-0.125 -0.716,-0.355 -0.208,-0.303 0.205,-1.226 0.296,-1.583 0.11,-0.451 0.087,-1.055 -0.098,-1.448 v -0.072 c -1.656,0 -1.487,3.67 -4.0639996,1.873 0,-0.982 2.3379996,-2.225 1.5349996,-3.303 -0.137,-0.18 -0.365,-0.332 -0.592,-0.363 -1.2539996,-0.15 -1.7509996,2.556 -3.1519996,2.316 -0.229,-0.039 -0.432,-0.218 -0.53,-0.414 -0.33,-0.639 1.221,-1.571 1.446,-2.207 0.123,-0.347 0.015,-0.665 -0.038,-1 -1.181,0 -2.569,1.693 -3.668,0.618 -0.174,-0.166 -0.362,-0.398 -0.294,-0.656 0.113,-0.449 0.912,-0.373 1.155,-0.795 0.009,-0.018 0.017,-0.034 0.026,-0.053 0.416,-0.945 -0.541,-1.643 -0.554,-2.501 -0.01,-0.427 0.322,-0.668 0.186,-1.138 -0.47,-1.601 -1.99,0.184 -2.713,-0.5 -0.652,-0.614 0.09,-1.89 0.138,-2.613 0.03,-0.472 -0.227,-0.827 -0.256,-1.289 -0.03,-0.421 0.273,-0.736 0.377,-1.109 0.139,-0.511 -0.008,-1.077 0.275,-1.519 0.817,-1.265 2.21,2.173 2.829,0.725 0.5,-1.173 -2.034,-1.109 -2.096,-1.998 -0.064,-0.884 1.477,-1.6800004 2.062,-2.2500008 0.514,-0.5010002 0.921,-1.1430006 0.99,-1.863001 0.066,-0.7190002 -0.27,-1.4480004 -0.454,-2.0790004 0.261,0 0.451,-0.113 0.726,-0.034 1.285,0.381 2.039,2.4350006 1.828,3.7040014 -0.181,1.0690006 -0.766,1.9860008 -0.837,3.1040008 -0.071,1.1 1.002,2.948 -0.026,3.735 -0.045,0.027 -0.092,0.055 -0.138,0.081 0,-0.115 -0.246,-0.153 -0.371,-0.157 -0.225,-0.007 -0.404,0.081 -0.557,0.199 -0.222,0.175 -0.352,0.442 -0.174,0.7 0.248,0.362 0.949,0.292 1.032,0.782 0.179,1.083 -2.09,1.295 -0.718,2.631 0.255,0.249 0.61,0.446 1.004,0.414 0.637,-0.05 2.1709996,-0.504 2.0839996,-1.32 -0.041,-0.369 -0.352,-0.716 -0.218,-1.13 0.138,-0.43 0.768,-0.38 0.934,-0.785 0.225,-0.55 -0.233,-0.957 -0.189,-1.468 0.01,-0.129 0.067,-0.176 0.165,-0.253 0.194,-0.15 0.566,-0.202 0.68,-0.452 0.286,-0.637 -0.485,-1.411 0.542,-1.754 0,0.452 -0.103,1.062 0.295,1.297 0,-0.109 0.22,-0.26 0.286,-0.365 0.324,-0.506 0.459,-0.981 1.118,-1.149 0.024,0.958 -0.518,1.777 -0.518,1.803 0.474,0 0.763,-0.625 1.299,-0.482 0.491,0.132 0.056,0.677 -0.058,0.906 -0.325,0.654 0.142,1.184 -0.056,1.788 -0.209,0.639 -1.92,1.091 -2.445,1.606 -0.177,0.17 -0.363,0.451 -0.276,0.718 0.322,1.001 1.504,0.404 2.329,0.64 0.386,0.114 0.678,0.381 0.954,0.683 0.379,0.421 0.644,1.108 0.407,1.68 -0.141,0.341 -0.388,0.598 -0.328,1.026 0.249,1.801 3.164,1.701 4.435,1.047 0.649,-0.333 1.264,-1.096 0.922,-1.875 -0.305,-0.684 -1.128,-0.286 -1.709,-0.54 -0.513,-0.221 -1.184,-1.254 -1.355,-1.742 -0.258,-0.733 0.464,-1.286 0.514,-1.998 0.098,-1.557 -0.634,-2.988 -0.943,-4.392 -0.059,-0.258 0.169,-0.606 0.032,-0.842 -0.224,-0.379 -0.69,-0.239 -1.064,-0.378 -0.29,-0.108 -0.421,-0.334 -0.675,-0.493 -0.544,-0.336 -1.171,-0.498 -1.242,-1.244 0.343,0 0.595,0.185 0.96,0.217 0.052,0.005 0.073,-0.028 0.074,-0.071 -10e-4,-0.026 -0.007,-0.048 -0.009,-0.071 -0.085,-0.648 -0.596,-1.1970004 -0.286,-1.8740008 0.459,0 0.567,1.0700006 1.33,0.7910004 0.09,0 0.079,-0.005 0.102,-0.083 0.156,-0.4980002 0.219,-0.9250004 0.488,-1.3580006 0.074,0 0.311,0.067 0.303,0.258 -0.02,0.4590002 -0.092,1.1530006 0.063,1.5450008 0.224,0.5820002 0.626,0.5070002 0.522,1.2950002 0.118,0 0.257,0.203 0.386,0.246 0.933,0.326 1.088,0.867 2.273,0.829 0.286,-0.007 0.576,-0.022 0.815,-0.139 0.208,0 0.129,0.322 0.055,0.573 -0.416,1.377 -0.941,2.739 -0.941,4.326 h 0.221 c 0,-0.178 0.703,-1.131 0.838,-1.353 0.176,-0.281 0.747,-1.591 1.252,-1.304 0.236,0.138 0.377,1.783 0.515,2.146 0.501,1.348 1.916,1.645 2.747,0.34 0.788,-1.233 0.302,-3.836 -0.706,-4.791 -0.397,-0.368 -0.957,-0.37 -1.337,-0.717 -0.397,-0.361 -0.041,-1.041 -0.106,-1.5170002 -0.062,-0.4400002 -0.354,-0.8550004 -0.678,-1.1720006 -0.725,-0.7040004 -1.685,-1.0210006 -2.424,-1.6770008 -0.314,-0.2760002 -0.383,-0.7350004 -0.766,-0.9050006 -0.377,-0.163 -0.841,0.046 -1.234,-0.069 -0.286,-0.181 -0.574,-0.361 -0.864,-0.541 -0.532,-0.277 -1.389,-0.745 -1.673,-0.83 0,-1.131 2.703,-0.528 3.259,-0.228 0.395,0.213 0.512,0.732 0.903,0.9 0.416,0.182 0.781,-0.243 1.23,-0.089 0.416,0.15 0.806,0.486 1.174,0.731 0.708,0.4810002 1.471,0.8860004 2.131,1.4510008 0.224,0.196 0.576,0.4640002 0.672,0.7310004 0.171,0.4770002 -0.584,1.6540008 0.754,1.4600008 1.038,-0.1390002 2.071,1.9470002 2.27,2.6870002 0.116,0.57 0.229,1.145 0.343,1.717 0.145,0.344 0.285,0.688 0.43,1.034 0.209,0.85 -0.549,0.822 -0.673,1.438 m -23.5059996,-2.184 c -0.831,-0.174 -1.413,0.78 -1.039,1.451 0.157,0.285 0.399,0.413 0.67,0.572 0.328,-0.029 0.61,-0.06 0.85,-0.258 0.693,-0.575 0.355,-1.587 -0.481,-1.765 m 5.5449996,6.056 c -0.075,-0.037 -0.218,0.032 -0.301,0.067 -1.0559996,0.447 -0.6199996,1.129 -0.216,1.878 0.81,-0.322 0.99,-1.714 0.517,-1.945 m 1.477,-3.097 c 0.976,-0.477 1.313,-1.305 1.28,-1.725 -0.01,-0.135 -0.092,-0.25 -0.092,-0.25 0,0 -0.251,-0.088 -0.527,0.022 -0.784,0.315 -0.661,1.153 -0.661,1.953 m 7.775,-3.45 c -0.041,-0.338 -0.165,-0.486 -0.384,-0.729 -0.378,0 -0.729,0.182 -0.841,0.52 -0.104,0.305 -0.009,0.687 0.017,0.994 0.085,1.091 0.168,2.331 0.529,3.313 0.363,-0.804 0.236,-1.745 0.414,-2.655 0.09,-0.463 0.326,-0.918 0.265,-1.443 m 5.307,4.746 c -0.497,0 -0.98,-0.058 -1.47,0.039 -1.85,0.367 -0.256,2.443 0.14,3.276 0.754,-0.685 1.59,-2.229 1.33,-3.315"
           style="fill:#ffffff;fill-opacity:1;fill-rule:nonzero;stroke:none"
           id="path20"
           inkscape:connector-curvature="0"
           sodipodi:nodetypes="ccccccccsccccccccccccccccccccccccccccccccccccccccccccccccccccccccccccccccccccccccccccccccccccccccccccccccccccccccccccccccccccccccccccccccccccccccccccccc" /></g></g></g></svg>
